# xmcd
#
# Track frame offsets:
#	150
#	14534
#	28713
#	42041
#	52615
#	63500
#	75811
#	88681
#	100024
#	111789
#	126073
#	140690
#	154427
#	167787
#	179966
#	194557
#	206026
#	220306
#	234674
#	249485
#	264099
#	278269
#	292389
#
# Disc length: 4080 seconds
#
# Revision: 3
# Processed by: cddbd v1.5.2PL0 Copyright (c) Steve Scherf et al.
# Submitted via: EasyCDDAExtractor 11.1.0.1
#
DISCID=4c0fee17
DTITLE=Various Artist - The Classic Years (1927-1931)
DYEAR=2003
DGENRE=Blues
TTITLE0=Blind Willie McTell - Writin' Paper Blues (1927)
TTITLE1=Blind Willie McTell - Stole Rider Blues (1927)
TTITLE2=Blind Willie McTell - Mama, 'Tain't Long Fo' Day (1927)
TTITLE3=Blind Willie McTell - Mr McTell Got The Blues (1927)
TTITLE4=Blind Willie McTell - Mr McTell Got The Blues (1927)
TTITLE5=Blind Willie McTell - Three Women Blues (1928)
TTITLE6=Blind Willie McTell - Dark Night Blues (1928)
TTITLE7=Blind Willie McTell - Statesboro Blues (1928)
TTITLE8=Blind Willie McTell - Loving Talking Blues (1928)
TTITLE9=Blind Willie McTell - Atlanta Strut (1929)
TTITLE10=Blind Willie McTell - Travelin' Blues (1929)
TTITLE11=Blind Willie McTell - Come On Around To My House Mama (1929)
TTITLE12=Blind Willie McTell - Kind Mama (1929)
TTITLE13=Blind Willie McTell with Alfoncy Harris and Bethanea Harris - Teasing
TTITLE13=Brown (1929)
TTITLE14=Blind Willie McTell - Drive Away Blues (1929)
TTITLE15=Blind Willie McTell with Alfoncy Harris and Bethanea Harris - This Is
TTITLE15=Not The Stove To Brown Your Bread (1929)
TTITLE16=Blind Willie McTell - Love Changing Blues (1929)
TTITLE17=Blind Willie McTell - Talkin' To Myself (1930)
TTITLE18=Blind Willie McTell - Razor Ball (1930)
TTITLE19=Blind Willie McTell - Southern Can Is Mine (1931)
TTITLE20=Blind Willie McTell - Broke Down Engine Blues (1931)
TTITLE21=Blind Willie McTell - Stomp Down Rider (1931)
TTITLE22=Blind Willie McTell - Scarey Day Blues (1931)
EXTD=YEAR: 2003
EXTT0=
EXTT1=
EXTT2=
EXTT3=
EXTT4=
EXTT5=
EXTT6=
EXTT7=
EXTT8=
EXTT9=
EXTT10=
EXTT11=
EXTT12=
EXTT13=
EXTT14=
EXTT15=
EXTT16=
EXTT17=
EXTT18=
EXTT19=
EXTT20=
EXTT21=
EXTT22=
PLAYORDER=
